<?xml version="1.0" standalone="no"?>
<!DOCTYPE svg PUBLIC "-//W3C//DTD SVG 1.1//EN" "http://www.w3.org/Graphics/SVG/1.1/DTD/svg11.dtd" >
<svg xmlns="http://www.w3.org/2000/svg">
<metadata>
This is a custom SVG webfont generated by Font Squirrel.
Copyright   : Generated by Fontographer 47
</metadata>
<defs>
<font id="webfont6dIL5BYo" horiz-adv-x="1198" >
<font-face units-per-em="2048" ascent="1638" descent="-410" />
<missing-glyph horiz-adv-x="409" />
<glyph unicode=" "  horiz-adv-x="409" />
<glyph unicode="&#x09;" horiz-adv-x="409" />
<glyph unicode="&#xa0;" horiz-adv-x="409" />
<glyph unicode="!" horiz-adv-x="344" d="M236 117q0 -49 -35 -83t-82 -34q-49 0 -84 34t-35 83t35 84t84 35q47 0 82 -35t35 -84zM240 1655l-31 -371l-53 -659q-8 -84 -15 -142q-14 -119 -24 -118q-18 0 -21 30q-6 47 -90 1110q-2 8 -2 19q0 49 59 80q38 16 177 51z" />
<glyph unicode="&#x22;" horiz-adv-x="503" d="M203 1755q-2 -225 -166 -330q-37 -20 -37 -4q0 6 6 21q59 96 60 182q0 131 43 131h94zM397 1755q-2 -225 -166 -330q-37 -20 -36 -4q0 6 8 21q57 96 57 182q0 131 43 131h94z" />
<glyph unicode="#" horiz-adv-x="1046" d="M825 1217q84 23 121 92h-149l67 245q4 18 4 33q0 43 -37 45h-94l-59 -270q-12 -59 -70 -64h-184l94 334h-84q-55 -12 -72 -80l-65 -249q-49 0 -111 -3q-68 -8 -86 -49q-14 -27 -47 -102l209 20l-47 -153q-18 -43 -66.5 -51.5t-64.5 -16.5q-35 -16 -53 -59 q-14 -35 -33 -76l166 14l-82 -329q86 10 129 116q23 74 48.5 148t78.5 80l229 20l-63 -268q-4 -20 -4 -39q0 -61 57 -66l107 357q0 29 34 33l68 12q29 -6 129 78h-193l56 196q4 34 67 52zM608 1024q-25 -55 -82 -59h-200l47 155q18 55 82 68q31 4 198 16z" />
<glyph unicode="$" horiz-adv-x="1011" d="M899 1194q6 41 6 74q0 133 -78 159q-119 20 -299 11q2 43 2 78q0 135 -30 145q-37 0 -23 -227q-123 -25 -143 -33q-178 -66 -244 -176q-39 -66 -39 -144q0 -63 27 -118q55 -117 233 -168q90 -27 121 -39q66 -23 115 -58q117 -82 117 -217q0 -129 -158 -186 q-90 -33 -180 -33q-61 0 -142 41q-129 66 -186 203v-170q0 -68 70 -100q78 -35 217 -35q82 0 182 12q-2 -209 27 -225q20 0 24 43q2 31 2 188q145 18 260 119q123 109 123 250q0 84 -49 164q-59 100 -199 157l-243 88q-111 47 -111 154q0 72 53 141q59 78 209 90 q96 8 148 -16q23 -10 114 -98z" />
<glyph unicode="%" horiz-adv-x="1636" d="M1223 700q-129 0 -219.5 -102t-90.5 -248q0 -143 90.5 -245.5t219.5 -102.5q127 0 217 102.5t90 245.5q0 145 -90 247.5t-217 102.5zM1235 55q-72 0 -121 87t-49 210t49 210t121 87q70 0 120 -87t50 -210t-50 -210t-120 -87zM1212 1597q-61 -31 -245 -49l-258 -20 q-90 -8 -277 49q-59 29 -123 29q-129 0 -219 -102.5t-90 -248.5q0 -145 90 -247.5t219 -102.5q127 0 217 102.5t90 247.5q0 109 -53 197q35 25 82 18q70 -6 148 -6q240 0 342 54l-826 -1465q-14 -25 -14 -41q0 -25 43 -2l917 1536q8 14 9 27q0 27 -31 26q-9 0 -21 -2z M322 958q-70 0 -120 88.5t-50 210.5q0 123 50 210t120 87t120 -87t50 -210t-50 -211t-120 -88z" />
<glyph unicode="&#x26;" horiz-adv-x="1458" d="M1272 907h-316q-29 0 -30 -22q0 -29 43 -29h98q2 -332 -16 -436q-14 -68 -35 -68q-14 0 -41 37l-440 602q33 14 69 35q236 131 217 346q-12 133 -147 221q-102 68 -211 68q-104 0 -189 -47q-92 -51 -129 -141q-29 -74 -28 -142q0 -109 76 -219q47 -72 120 -143q6 -2 6 -6 q0 -12 -30 -35q-289 -193 -289 -455q0 -119 61 -246q106 -221 527 -239q252 0 422 215l4 -6q4 -4 30 -35q66 -72 99 -101q70 -63 117 -71l20 -2l-190 252q-14 10 -15 30q0 20 15 49q35 61 79 218q57 193 58 313h82q41 0 45 27q0 30 -82 30zM481 1599q63 0 109.5 -73.5 t46.5 -161.5q0 -43 -14 -80q-31 -78 -115 -229q-8 -20 -19 -21q-12 0 -22 21q-139 162 -139 317q0 94 49 160.5t104 66.5zM926 174q-94 -82 -236 -86q-131 -6 -248 55q-123 66 -178 179q-49 96 -49 219q0 168 74 286q10 16 43 50q39 43 47 32l543 -633q29 -25 28 -53 q1 -26 -24 -49z" />
<glyph unicode="'" horiz-adv-x="370" d="M266 1753q-2 -223 -217 -328q-49 -20 -49 -4q0 8 10 21q76 94 76 182q0 72 10 96q10 33 47 33h123z" />
<glyph unicode="(" horiz-adv-x="483" d="M336 1825q29 31 39 30q10 0 6 -18q-2 -12 -37 -111q-49 -135 -139 -409q-72 -242 -72 -494q0 -229 57 -475q41 -168 84 -285q16 -45 60 -139q47 -100 43 -104q-4 -12 -12 -13q-37 0 -115 123q-102 162 -139 258q-121 326 -111 635q6 160 53 340q55 223 150 426 q53 117 133 236z" />
<glyph unicode=")" horiz-adv-x="483" d="M43 -160q-29 -33 -41 -33q-8 0 -6 21q2 12 39 111l139 409q72 240 72 494q0 227 -60 475q-39 166 -84 282q-16 45 -60 142.5t-42 103.5q4 10 14 10q37 0 115 -122q102 -160 139 -256q121 -328 109 -635q-6 -160 -51 -342q-55 -221 -150 -426q-53 -115 -133 -234z" />
<glyph unicode="*" horiz-adv-x="577" d="M438 1671l-178 -121q-4 256 -39 256q-33 0 -37 -241l-131 92q-20 14 -35 14q-18 0 -18 -18t23 -39l161 -113l-153 -104q-29 -16 -29 -35q0 -16 25 -16q14 0 30 8l129 86q8 -193 35 -193q29 0 37 205q170 -117 188 -117q16 2 17 17q0 8 -6 22l-183 127q190 131 197 148 q8 28 -33 22z" />
<glyph unicode="+" horiz-adv-x="905" d="M762 698l-322 23l27 469q-39 -2 -88 -8t-47 -80q4 -164 14 -357q-2 -16 -12 -18l-334 25q4 -39 6 -88.5t64 -47.5q129 4 280 15q0 -129 19 -381q8 -55 22 -55q10 0 23 47l20 374q4 20 19 19q113 0 311 18q35 8 35 23q0 10 -37 22z" />
<glyph unicode="," horiz-adv-x="450" d="M346 242q-4 -258 -285 -377q-61 -25 -61 -6q0 10 12 24q100 109 101 209q0 82 10 111q14 39 63 39h160z" />
<glyph unicode="." horiz-adv-x="342" d="M236 117q0 -47 -34 -82t-83 -35t-84 35t-35 82q0 49 35 84t84 35t83 -35t34 -84z" />
<glyph unicode="/" horiz-adv-x="825" d="M2 -41l596 1694h86q39 0 39 -41q0 -20 -9 -43l-67 -168l-452 -1137q-29 -78 -93 -233q-32 -72 -100 -72z" />
<glyph unicode="0" horiz-adv-x="1193" d="M541 1532q-225 0 -384 -226.5t-159 -545.5t158.5 -545.5t384.5 -226.5q225 0 384.5 226t159.5 546q0 319 -159.5 545.5t-384.5 226.5zM541 49q-129 0 -221.5 209t-92.5 502q0 295 92.5 502.5t221.5 207.5q131 0 223 -207.5t92 -502.5q0 -293 -92 -502t-223 -209z" />
<glyph unicode="1" horiz-adv-x="516" d="M410 0v1479q0 39 -31 39q-16 0 -35 -9q-63 -33 -324 -157q-20 -10 -20 -19q0 -10 25 -6l86 23q35 6 39 6q23 0 22 -31q-4 -131 0 -1253q0 -68 61 -72h177z" />
<glyph unicode="2" d="M0 2h995q90 0 97 51v185q-72 -127 -166 -170q-41 -14 -162 -19q-86 -4 -211 0q-156 2 -115 2h-254q-76 -6 -75 17q0 16 34 43l299 219q225 172 273 217q25 23 71 69q229 236 230 461q0 57 -17 115q-45 147 -162.5 240.5t-271.5 101.5q-272 12 -518 -260q-33 -35 -33 -51 q0 -8 9 -11q16 -4 83 52q225 180 388 180q154 0 235 -123q57 -84 57 -186q0 -178 -168 -396q-66 -84 -206 -245l-170 -170l-164 -144q-78 -70 -78 -125v-53z" />
<glyph unicode="3" horiz-adv-x="1136" d="M250 -12zM467 1434q-80 10 -161 -20t-156 -83q-25 -23 -78 -61q-39 -27 -49 -27q-6 0 -13 4q-12 10 31 51l94 91q53 45 105.5 73.5t91.5 42.5q104 35 239 27q121 -8 224.5 -74.5t146.5 -175.5q27 -63 25 -131q-2 -111 -53.5 -189.5t-150.5 -132t-198 -57.5q137 4 262 -49 q100 -43 151.5 -120t51.5 -169q0 -96 -53 -194q-104 -193 -359 -238q-100 -18 -276 -10q-119 6 -225 45q-61 23 -97 49q-20 16 -20 29q0 6 4 10q4 2 55 -21q152 -70 287 -69q86 0 193 41q233 92 233 313q0 133 -82 221q-53 57 -172 99q-96 33 -96 55q0 10 20 18 q78 31 152 108t106 154q18 47 19 101q0 158 -117 239q-57 40 -135 50z" />
<glyph unicode="4" horiz-adv-x="1337" d="M1178 463h-138v1057h-202q-29 4 -68 -47q-20 -25 -758 -998q-12 -16 -12 -29q0 -29 59 -32h668q72 10 78 -70v-299q8 -43 53 -45h182v369q-12 43 45 45h117q27 0 29 28q0 16 -14 21h-39zM731 483q-23 2 -250 13l-248 12l537 889q16 27 27 26q12 0 12 -32v-861 q6 -33 -35 -43q-16 -4 -43 -4z" />
<glyph unicode="5" horiz-adv-x="1157" d="M195 1518l817 -15q47 0 47 -10q0 -8 -25 -20l-753 -72q-70 -12 -83 -87l-65 -370q2 6 94 25q82 14 166 14q227 0 404 -102q33 -18 92 -58q94 -78 143 -213q29 -80 19 -174q-4 -66 -19 -112q-39 -129 -209 -240q-154 -100 -381 -100q-223 0 -393 92q-55 29 -49 47 q4 18 43 -2q152 -78 340 -78q141 0 242 59q92 53 141 123q55 80 55 170q0 100 -67 183q-117 137 -365 137q-117 0 -237 -31q-61 -14 -123 -41l75 797q-3 72 91 78z" />
<glyph unicode="6" horiz-adv-x="1144" d="M1016 694q-39 127 -131 201q-121 98 -291 98q-88 0 -180 -49t-133 -113q-37 -55 -37 -24q0 10 6 33q18 145 147 321q49 66 176 203q33 35 119 92q66 45 60 55q-4 8 -19 9q-78 0 -313 -197q-84 -68 -162 -158q-162 -182 -211 -336q-49 -160 -47 -292q2 -225 133 -371 q72 -80 160 -129q98 -53 219 -53q154 0 281 86q246 166 245 456q1 86 -22 168zM823 479q-6 -184 -96 -311t-209 -123q-119 6 -198.5 139t-71.5 318q6 184 96 311t209 123q119 -6 198.5 -139.5t71.5 -317.5z" />
<glyph unicode="7" horiz-adv-x="1189" d="M0 1473q6 45 53 49h1032v-66q8 -39 -45 -156q-25 -57 -663 -1298h-152q-41 0 -41 33q0 18 15 45q23 41 653 1315q18 27 18 45q0 35 -51 37q-549 0 -592 -8.5t-90 -42t-67 -68.5q-14 -20 -70 -113v228z" />
<glyph unicode="8" horiz-adv-x="1140" d="M694 762q-4 6 -4 12t4 17q121 45 196 141t75 215q0 160 -130 273.5t-315 113.5q-184 0 -314 -113.5t-130 -273.5q0 -106 60.5 -196.5t162.5 -141.5q2 0 16.5 -9t12.5 -24q0 -10 -17 -22q-141 -47 -227 -146.5t-86 -220.5q0 -166 151.5 -282.5t366.5 -116.5t367.5 116.5 t152.5 282.5q0 127 -95 229.5t-247 145.5zM524 1483q88 0 151.5 -95.5t63.5 -230.5q0 -133 -63.5 -228t-151.5 -95q-90 0 -153.5 95t-63.5 228q0 135 63.5 230.5t153.5 95.5zM518 66q-129 0 -221 97t-92 236t92 236.5t221 97.5t221 -97t92 -237q0 -139 -92 -236t-221 -97z " />
<glyph unicode="9" horiz-adv-x="1206" d="M1053 1180q-63 164 -208 258t-321 94q-137 0 -239 -55q-131 -72 -224 -244q-61 -117 -61 -250q0 -152 80 -276.5t221 -169.5q68 -20 162 -25q119 -2 225 39q92 37 141 100q18 27 27 27q6 0 6 -14q0 -6 -2 -19q-10 -47 -47 -106q-125 -195 -293 -342q-104 -90 -203 -166 q-23 -18 -22 -27q0 -6 10 -6q18 0 68 29q12 6 102 65q281 184 416 346q207 248 207 514q0 115 -45 228zM864 1018q-4 -184 -97 -312t-222 -126q-127 4 -213 137t-82 317t97 312.5t220 126.5q127 -4 214 -137.5t83 -317.5z" />
<glyph unicode=":" horiz-adv-x="342" d="M236 117q0 -49 -35 -84t-82 -35q-49 0 -84 35t-35 84t35 82.5t84 33.5q47 0 82 -33.5t35 -82.5zM236 827q0 -47 -35 -81.5t-82 -34.5q-49 0 -84 34.5t-35 81.5q0 49 35 84t84 35q47 0 82 -35t35 -84z" />
<glyph unicode=";" horiz-adv-x="446" d="M340 829q0 -49 -35 -82.5t-82 -33.5q-49 0 -84 33.5t-35 82.5t35 84t84 35q47 0 82 -35t35 -84zM338 236q-2 -252 -277 -369q-61 -25 -61 -6q0 8 14 22q96 109 97 205q0 82 10 109q14 39 61 39h156z" />
<glyph unicode="&#x3c;" horiz-adv-x="522" d="M399 1151l-51 -47l-323 -297q-25 -23 -25 -43q0 -23 55 -70l359 -303q4 6 4 15q0 23 -25 59q-20 27 -262 303q274 301 268 383z" />
<glyph unicode="=" horiz-adv-x="718" d="M0 887l584 -56q25 0 26 -20q0 -27 -147 -35l-412 -24q-47 -4 -51 47v88zM0 604l582 -53q27 0 28 -23q0 -27 -147 -34l-414 -25q-45 -4 -49 47v88z" />
<glyph unicode="&#x3e;" horiz-adv-x="524" d="M18 1151l54 -49l323 -297q25 -23 25 -41q0 -25 -52 -69l-362 -304q-6 4 -6 12q0 23 27 60q20 27 262 305q-275 301 -271 383z" />
<glyph unicode="?" horiz-adv-x="942" d="M473 117q0 -49 -35 -83t-84 -34t-82.5 34t-33.5 83t33.5 82.5t82.5 33.5t84 -33.5t35 -82.5zM14 1350q-27 31 -8 61q145 225 400 238q141 8 239 -41q211 -102 191 -418q0 -20 -7 -47q-31 -121 -135 -238q-123 -137 -301 -223q-39 -18 -37 -70q6 -238 -18 -243 q-16 -2 -23.5 12t-27.5 104q-29 119 -29 160q2 25 29 47l47 33q127 94 205 217q86 139 84 283q-2 109 -41 184q-66 121 -209 135q-201 23 -359 -194z" />
<glyph unicode="@" horiz-adv-x="1355" d="M299 -12h580h-580zM1247 1090q-18 205 -131 348q-94 119 -209 174q-100 49 -221 49q-170 0 -321 -113q-135 -100 -220 -264q-59 -115 -88 -201q-57 -174 -57 -356q0 -188 61 -365q68 -188 176.5 -281t245.5 -93q33 0 72 6q61 8 121 47q39 23 108 82q18 18 19 33 q-2 4 -4 4q-20 -2 -46 -19.5t-149 -56.5q-31 -10 -65 -10q-96 0 -185 55q-61 39 -108 100q-141 182 -142 461q0 176 84 422q70 211 172 338q129 158 297 158q27 0 54 -4q403 -66 430 -611q6 -125 -23 -237q-33 -119 -94 -181q-23 -25 -43 -24q-33 0 -33 86v524q0 6 -51 0 q-49 -6 -55 -13t-8.5 -62.5t-16.5 -55.5q-12 0 -31 21q-102 106 -213 106q-59 0 -103 -39t-75 -106q-51 -104 -63 -242q-6 -70 1 -120t15 -72q12 -45 35 -66q37 -31 98 -31q53 0 97 21q102 51 190 243q23 45 33 76q-8 -25 -4 -86q6 -72 10 -143q16 -90 74 -111 q31 -10 61 -10q131 0 236 205q41 80 59 170q22 111 10 244zM688 682q-94 -125 -176 -121q-88 4 -88 172q0 172 80 309q35 61 98 62q90 0 170 -98q23 -29 27 -54q4 -29 -16.5 -100.5t-94.5 -169.5z" />
<glyph unicode="A" horiz-adv-x="1499" d="M719 1661h-88q-18 0 -31 -4q-35 -8 -41 -29l-553 -1628h88q29 0 51 20q10 8 31 39l111 371h549q47 0 71 -20q16 -16 39 -67.5t68 -176.5q51 -167 120 -167q6 0 13 1h237zM852 492h-547l209 847q12 45 31 45q20 0 41 -45l301 -792q8 -14 8 -27q0 -26 -43 -28z" />
<glyph unicode="B" horiz-adv-x="1210" d="M1051 590q-115 172 -385 172q-37 0 -78 -2q127 16 229 129q41 45 87 130t46 173q0 205 -196 336q-147 100 -512 100h-43q-31 2 -47 2q-141 0 -152 -78q-7 -56 -7 -135q0 -32 1 -67q6 -213 6 -201v-1149q373 0 434 2q236 16 350 47q205 57 275 195q43 86 43 176 q0 96 -51 170zM238 1497q0 60 75 60q7 0 15 -1q109 -14 172 -43q168 -76 215 -215q23 -66 22 -131q0 -90 -45 -155q-184 -266 -454 -269v754zM600 109q-147 -37 -262 -37q-51 0 -100 6l2 502q0 55 17 82.5t65 33.5q5 1 13 1q28 0 97 -5q139 -8 230 -51q49 -25 67 -37 q35 -20 57 -49q63 -84 64 -186q0 -100 -65.5 -165.5t-184.5 -94.5z" />
<glyph unicode="C" horiz-adv-x="1277" d="M1169 1243q4 23 7 80q1 21 0 40q0 66 -11 107q-10 41 -22 60q-61 76 -269 115q-53 10 -111 9q-88 0 -188 -22q-147 -33 -260 -112q-145 -102 -219 -287q-92 -236 -94 -469v-17q0 -95 21 -188q39 -180 126 -304t229 -199.5t294 -75.5q129 0 239 57q92 49 183 125 q51 45 51 58q0 9 -8.5 9t-69.5 -45q-53 -39 -88 -57q-80 -43 -178 -43q-180 0 -309 121q-80 74 -127 172q-31 68 -52 174q-18 104 -18 221q0 78 8 162q14 141 62 252q84 201 186 307q90 94 217 94q55 0 109 -20q84 -33 167 -140q37 -45 125 -184z" />
<glyph unicode="D" horiz-adv-x="1275" d="M1133 1079q-86 297 -392 465q-192 107 -446 107h-19q-76 -4 -131 -23q-133 -41 -147 -143v-1487q369 0 547 43q236 57 391 225q233 250 233 561q1 123 -36 252zM903 676q-39 -213 -162 -379q-76 -102 -299 -193q-39 -14 -104 -24l-109 -14v1437q0 72 87 72h14 q123 -16 245 -86q184 -109 273 -305q70 -154 70 -336q-1 -86 -15 -172z" />
<glyph unicode="E" d="M1092 1335v176q0 111 -138 119q-93 3 -286 3t-486 -3q-170 0 -182 -166v-1466h1001q37 0 62 14q29 23 29 70v219q-8 -106 -158 -174q-170 -66 -432 -66h-271v586q0 109 80 117h445q9 -2 17 -3q30 0 32 40q-10 14 -70 16h-499v631q0 109 96 117q203 0 203 1l-7 1 q158 -4 297 -31q66 -16 117 -41q121 -60 150 -160z" />
<glyph unicode="F" horiz-adv-x="1181" d="M0 0v1524q0 100 125 106q90 -1 288 -1t505 1q147 0 157 -141v-148q-104 182 -319 218q-104 8 -420 22h-4q-93 0 -101 -108v-652l512 2q41 -4 41 -20q0 -33 -26 -37q14 2 -56 2h-395q-70 0 -76 -86v-588q2 -14 2 -25q0 -64 -57 -69h-176z" />
<glyph unicode="G" horiz-adv-x="1437" d="M1198 1272q8 51 8 94q0 137 -59 184q-170 102 -359 103q-127 0 -241 -43q-188 -70 -328 -240q-127 -156 -184 -354q-29 -102 -35 -203q-1 -23 -1 -46q0 -255 105 -439q88 -158 238 -244q186 -106 385 -107q227 0 463 140v397q-2 9 -2 16q0 32 45 35q29 0 104 15q6 8 6 14 q0 25 -57 27h-559q-61 0 -70 -17q-4 -6 -4 -12q0 -25 49 -25h160q9 1 17 2q72 0 77 -116q0 -158 -10 -222.5t-31 -103.5q-12 -25 -44.5 -51.5t-59.5 -28.5q-33 -4 -61 -4q-199 0 -330 184q-162 231 -162 523q0 68 8 141q6 57 25 172q43 174 149 330q127 184 332 184 q94 0 176 -43q144 -80 250 -262z" />
<glyph unicode="H" horiz-adv-x="1382" d="M0 1634v-1632h160q72 0 76 78v678h698q100 0 108 -92v-598q6 -66 68 -66h168v1632h-166q-5 1 -9 1q-61 0 -65 -109v-709h-719q-10 -2 -19 -2q-59 0 -64 94v629q0 96 -82 96h-154z" />
<glyph unicode="I" horiz-adv-x="344" d="M238 1630v-1540q-12 -86 -88 -92h-150v1552q0 74 84 80h154z" />
<glyph unicode="J" horiz-adv-x="960" d="M854 1630v-1130q0 -170 -103.5 -300t-267.5 -186q-88 -31 -202 -37q-14 -1 -27 0q-130 0 -201 74q-55 57 -55 121v137q96 -262 246 -268q9 0 17 -1q97 0 183 64q88 66 134 168q41 92 40 273v1009q-1 6 0 12q0 59 82 64h154z" />
<glyph unicode="K" horiz-adv-x="1288" d="M0 1634v-1634h166q72 0 78 51v613q6 43 28 43q16 0 33 -17l565 -618q61 -66 160 -72h160l-752 891l746 743h-127q-2 0 -4 1q-34 0 -90 -64l-623 -717q-39 -35 -64 -35q-31 0 -32 47v678q1 8 1 15q0 70 -110 75h-135z" />
<glyph unicode="L" horiz-adv-x="1196" d="M2 1632v-1632h1014q70 8 74 88v164q-57 -113 -228 -160q-184 -41 -616 -41v1512q0 66 -64 69h-180z" />
<glyph unicode="M" horiz-adv-x="1763" d="M1487 1632q-16 -2 -31 -10q-35 -18 -53 -68l-543 -1450l-530 1471q-28 57 -88 57h-4h-132h-53l-53 -1632q16 0 29 6q31 10 34 39l179 1344l417 -1317q32 -73 62 -74q4 0 8 2h129q10 2 19 6q23 14 34 47l514 1295v-1260q2 -25 11 -41q18 -43 65 -47h158v1632h-172z" />
<glyph unicode="N" horiz-adv-x="1232" d="M2 -2v1634h150q70 0 114 -69q23 -33 778 -1420l-34 1375q-2 17 -2 30q0 77 47 84h88l-53 -1632h-154q-51 0 -96 68l-693 1251l-96 -1227q-6 -76 -49 -94z" />
<glyph unicode="O" horiz-adv-x="1417" d="M690 1653q-254 0 -451.5 -221.5t-232.5 -548.5q-6 -55 -6 -113q0 -299 158 -528q176 -262 463 -262q254 0 451.5 221t232.5 549q6 55 6 112q0 299 -158 529q-178 262 -463 262zM1102 788q-16 -319 -154 -539q-132 -212 -302 -212h-13q-178 10 -293 243q-100 203 -100 473 q0 39 2 78q16 322 153 542q131 210 300 211q8 0 16 -1q178 -8 293 -241q100 -203 100 -475q0 -39 -2 -79z" />
<glyph unicode="P" horiz-adv-x="1187" d="M1051 1321q-109 268 -555 303q-109 10 -412 10q-84 -6 -84 -71v-1563h137q25 2 43 6q45 14 62 45v561q305 0 460 43q92 27 175 88q70 51 129 144q80 129 79 264q1 86 -34 170zM649 760q-106 -72 -282 -82q-74 -4 -129 -6v807q-1 7 -1 14q0 75 82 82q127 0 197 -19 q143 -37 240 -151q90 -104 90 -260q0 -250 -197 -385z" />
<glyph unicode="Q" horiz-adv-x="1458" d="M934 63q156 94 265.5 268.5t139.5 391.5q10 74 11 145q0 303 -164 531q-182 256 -471 256q-256 0 -459 -213t-248 -533q-10 -74 -10 -145q0 -301 157.5 -523.5t401.5 -256.5q35 -5 71 -5q27 0 54 3q0 -2 37 -15q74 -27 131 -61q261 -162 376 -162h3q16 0 16 8 q0 12 -41 39q-274 168 -274 254q0 8 4 18zM616 37q-170 10 -283.5 218t-113.5 503q0 274 117 534q139 316 364 316h23q172 -12 284.5 -220t112.5 -503q0 -274 -114 -535q-140 -314 -367 -314q-12 0 -23 1z" />
<glyph unicode="R" horiz-adv-x="1187" d="M942 1470q-90 98 -299 138q-10 2 -223 20q-45 4 -328 4q-25 -2 -43 -10q-43 -23 -49 -80v-1542h180q66 6 66 82v539h178q10 0 22 -7q27 -12 48 -47l303 -477q64 -89 118 -89q7 0 13 1l153 -2l-430 629q127 37 217 94q215 139 215 367v16q0 208 -141 364zM524 684 q-104 -11 -193 -11q-45 0 -85 3v837q0 63 78 70q125 0 211 -24q139 -41 231 -171.5t92 -277.5q0 -137 -98 -274q-107 -148 -236 -152z" />
<glyph unicode="S" horiz-adv-x="1187" d="M1081 1360q0 20 1 39q0 158 -31 196q-41 35 -115 45q-4 2 -129 11h-94q-127 0 -211 -13q-209 -27 -320 -118q-162 -131 -162 -306q0 -127 35 -190q41 -80 135 -154q84 -70 324 -190q143 -74 211 -152q55 -66 55 -157q0 -170 -252 -297q-72 -35 -161 -35q-219 0 -367 266 v-192q0 -84 129 -109q117 -23 223 -22q199 0 367 77q193 90 276 238q29 53 29 131q0 63 -20 119q-31 82 -156 184q-86 70 -303 191q-195 109 -262 204q-33 47 -33 131q0 115 92 209q121 123 332 123q63 0 125 -14q104 -20 190 -94q74 -62 92 -121z" />
<glyph unicode="T" horiz-adv-x="1472" d="M569 0v1337q0 12 2 43t2 47q0 152 -103 152h-3q-143 0 -180 -6q-117 -14 -174 -72q-51 -45 -113 -112v202q0 39 51 43q72 2 378 2t847 -2q86 0 92 -63v-174q-82 113 -170 153q-61 25 -249 25h-29q-82 -2 -105 -55q-12 -31 -12 -131v-1307q0 -76 -68 -82h-166z" />
<glyph unicode="U" horiz-adv-x="1296" d="M31 1628h198q33 -3 33 -60q0 -14 -2 -32q-6 -43 -12 -340q-6 -250 -8 -496q0 -17 -1 -33q0 -179 21 -280q43 -219 199 -295q80 -39 164 -39q141 0 225 105q74 90 98 235q14 82 15 180q0 98 -23 312q-2 29 -37 635q-4 16 -4 30q0 74 84 78h145q23 -184 41 -416 q25 -309 25 -469q0 -270 -55 -413q-43 -115 -103 -183q-78 -86 -139 -118q-70 -35 -268 -54q-15 -1 -31 -1q-87 0 -199 38q-295 100 -368 400q-20 82 -29 370q-1 29 -1 61q0 65 3 144q12 193 18 330q5 155 11 311z" />
<glyph unicode="V" horiz-adv-x="1370" d="M2 1634h123q11 2 21 2q86 0 126 -127l365 -1376l403 1409q25 86 82 92h142l-582 -1566q-14 -61 -109 -68h-141z" />
<glyph unicode="W" horiz-adv-x="2265" d="M0 1634h141l16 2q77 0 124 -153q25 -94 323 -1383l283 1403q16 78 84 84h157q51 -8 76 -45q10 -20 486 -1442l258 1450q12 78 67 84h162l-457 -1634h-182q-55 0 -119 160l-448 1194l-316 -1239q-29 -115 -110 -115h-170z" />
<glyph unicode="X" horiz-adv-x="1292" d="M14 1632h158q53 0 96 -59l371 -625l297 625q16 55 72 59h180l-500 -698q-25 -35 -12 -60l510 -874h-164q-49 0 -86 51l-377 645l-291 -630q-29 -59 -80 -66h-188l506 731q16 31 2 60q-13 28 -494 841z" />
<glyph unicode="Y" horiz-adv-x="1294" d="M0 1634h188q41 0 68 -39q14 -20 428 -880l303 837q18 76 68 82h133l-438 -909q-31 -49 -33 -172q1 -72 1 -188t-1 -277q0 -25 -8 -39q-25 -49 -88 -49h-148v545q1 9 1 19q0 56 -38 134z" />
<glyph unicode="Z" horiz-adv-x="1189" d="M0 1384v170q-2 10 -2 19q0 52 86 57h999l-776 -1489q-16 -33 -16 -53q0 -37 39 -41q46 -3 150 -3t265 3q125 2 199 47q33 20 139 144v-179q0 -57 -63 -61h-1028l786 1489q20 31 21 53q0 35 -51 37h-388q-225 -3 -360 -193z" />
<glyph unicode="[" horiz-adv-x="571" d="M-2 -197h420q39 8 39 23q0 12 -23 22q-86 12 -174 27q-131 20 -131 90v1794l309 51q25 12 27 21q0 20 -41 20q-61 2 -361 0q-61 -2 -65 -61v-1987z" />
<glyph unicode="\" horiz-adv-x="722" d="M82 1630q-84 -33 -84 -86q0 -8 2 -14l537 -1321q8 -41 45 -47l36 -8z" />
<glyph unicode="]" horiz-adv-x="569" d="M465 -197h-418q-39 8 -39 23q0 12 21 22q88 12 174 27q131 20 131 90v1794l-307 51q-27 12 -29 21q0 20 43 20q61 2 360 0q59 -2 64 -61v-1987z" />
<glyph unicode="^" horiz-adv-x="845" d="M369 1151l-340 -606q-8 -12 -23 -41q-6 -10 -2 -15q10 -12 31 17l63 90l21 29l252 354l334 -463q35 -47 34 -20q0 12 -6 32z" />
<glyph unicode="_" horiz-adv-x="1386" d="M983 -193h-688h688zM-2 -193v80q0 61 82 66h1194v-90q-8 -51 -76 -56h-1200z" />
<glyph unicode="a" horiz-adv-x="1105" d="M905 1182q-72 96 -188 121q-43 10 -99 12h-21q-146 0 -275 -78q-49 -29 -93 -59q-84 -61 -137 -123q-29 -35 -29 -45q0 -6 5 -11q3 -2 7 -1q21 0 81 42l129 95q82 59 137 77q43 14 90 15q55 0 113 -19q143 -45 143 -362q0 -39 -2 -85t-2 -48q0 -12 -10 -13q-18 0 -58 35 q-66 59 -166 94q-68 25 -139 25q-100 0 -178 -45q-213 -123 -213 -408q0 -123 45 -231q31 -74 86 -117q68 -53 172 -53q76 0 150 27q66 23 118 61q104 76 201 223v-239q6 -72 78 -72h88h61v621q0 227 -14 351t-80 210zM725 348q-124 -207 -275 -206q-14 0 -28 1 q-170 20 -189 256q-2 27 -2 52q0 102 33 186q16 45 63.5 89t92.5 50q13 2 25 2q65 0 137 -43q51 -29 109.5 -92t76.5 -117q6 -18 6 -39q0 -57 -49 -139z" />
<glyph unicode="b" horiz-adv-x="1179" d="M1071 782q-10 106 -35 199q-59 229 -184 299q-49 27 -107 27q-133 0 -247.5 -115t-223.5 -352q-18 -41 -30 -41q-10 0 -11 45v921h-167q-16 -2 -29 -10q-33 -20 -37 -74v-1681h129q115 0 115 174q0 29 -2 53q2 -23 114 -110q152 -121 275 -121q61 0 117 27 q106 49 188 170q74 109 108 239q32 124 32 248q0 51 -5 102zM631 139q-47 -23 -94 -22q-121 0 -211 131q-78 115 -88 244q-1 15 -1 29q0 114 56 243q57 129 151 229q117 123 207 123q106 0 166 -174q39 -119 39 -209q0 -195 -14 -270q-45 -242 -211 -324z" />
<glyph unicode="c" horiz-adv-x="1062" d="M944 963q12 98 12 137q-4 109 -65 147q-109 68 -252 68q-129 0 -244 -64q-285 -160 -370 -512q-25 -106 -25 -194q0 -119 45 -236q90 -236 289 -297q70 -23 149 -22q123 0 244 49t197 133q25 29 24 39q0 4 -4 4q-12 0 -61 -31q-76 -47 -117 -65q-68 -29 -141 -29 q-131 0 -230 84q-156 131 -155 391q0 121 34 234q49 147 136 278q119 182 254 183q121 0 217 -160q53 -90 63 -137z" />
<glyph unicode="d" horiz-adv-x="1214" d="M1110 1688q-4 80 -59 79h-172v-79v-594q0 -53 -21 -54q-14 0 -39 39q-168 233 -354 234q-61 0 -119 -29q-84 -55 -151 -137q-158 -197 -197 -502q0 -21 -1 -42q0 -603 404 -603q63 10 134 55q168 109 344 383v-366q6 -72 84 -72h147v1688zM872 641q-16 -156 -163 -330 q-74 -90 -166 -145q-43 -27 -86 -27q-92 0 -154 107q-88 147 -88 364q0 147 47 287q76 236 176 313q33 25 70 25q80 0 178 -121q84 -100 129 -180q61 -107 61 -231q0 -31 -4 -62z" />
<glyph unicode="e" horiz-adv-x="1101" d="M805 100q-115 -66 -199 -65q-25 -2 -47 -2q-205 0 -287 182q-33 76 -39 180l3 183h673q82 8 88 94q0 111 -55 266q-41 117 -110.5 204t-147.5 130q-70 39 -149 39q-195 0 -342 -187q-193 -244 -193 -553q0 -225 119 -387q102 -143 282 -180q88 -18 156 -18q172 0 326 100 q92 61 92 94q0 14 -14 15q-14 0 -62 -33q-71 -50 -94 -62zM369 1194q68 51 143 51q129 0 193 -129q59 -121 69 -328q1 -24 1 -43q0 -38 -3 -57q-2 -14 -8 -24q-16 -27 -49 -35h-482q4 283 7 303q23 180 129 262z" />
<glyph unicode="f" horiz-adv-x="1099" d="M993 1470v172q1 6 1 13q0 50 -74 86q-106 46 -213 46l-25 -1q-166 -10 -299 -170q-74 -90 -113 -209q-16 -51 -22 -115q-2 -18 -6 -131q-6 -119 -4 -119h-189q-47 0 -49 -90h184q49 0 54 -73v-879h172q59 0 63 63v881h389q33 10 33 19q0 16 -66 26l-157 25 q-92 12 -137 24q-61 18 -62 142q0 317 86 448q63 98 170 98q119 0 195 -127q32 -51 69 -129z" />
<glyph unicode="g" horiz-adv-x="1337" d="M1094 14q-135 86 -420 168l-182 47q-135 35 -136 76q0 23 35 49q78 61 135 95q29 -4 74 -5q178 0 311 82q90 55 139.5 154.5t49.5 208.5q0 131 -64 221q-31 41 -30 66q0 33 53 36h78q23 0 82 5q14 12 14 20q0 18 -70 20q-145 4 -276 9q-61 2 -72 2q-45 4 -70 16 q-50 23 -114 23h-21q-145 -6 -274 -76q-143 -80 -195 -207q-29 -68 -28 -143q0 -123 66.5 -228.5t174.5 -148.5q35 -12 58 -17q14 0 14 -14q0 -16 -35 -37l-149 -84q-109 -74 -109 -139q0 -51 55 -82q70 -39 209 -55q-369 -84 -397 -312q0 -143 244 -221q176 -57 350 -57 q143 0 298 50t249 132q76 68 86 150q1 8 1 16q0 95 -134 180zM383 879q0 154 65.5 262t157.5 108t157.5 -108.5t65.5 -261.5q0 -154 -65.5 -262.5t-157.5 -108.5t-157.5 108.5t-65.5 262.5zM901 -362q-117 -86 -293 -87q-203 0 -299 117q-33 41 -33 94q0 47 25 107 q33 74 64 106q63 74 149 74q37 0 155.5 -28.5t207.5 -83.5q111 -72 110 -156q0 -80 -86 -143z" />
<glyph unicode="h" horiz-adv-x="1097" d="M0 1767v-1765h150q82 0 88 90v440q0 88 33.5 195t142.5 248q66 88 92 115q63 66 121 67h6q122 0 123 -223q-2 -130 -2 -344t2 -512q0 -72 61 -76h174v723v69v-3q-2 137 -22 237q-25 111 -82 189q-68 90 -160 90q-37 0 -76 -15q-231 -92 -418 -518v901q0 86 -83 92h-150z " />
<glyph unicode="i" horiz-adv-x="346" d="M242 1565q0 -49 -35 -83t-84 -34t-83 34t-34 83t34 83.5t83 34.5t84 -34.5t35 -83.5zM238 1307v-1248q1 -6 1 -11q0 -42 -71 -46h-168v1227q-1 6 -1 12q0 62 83 66h156z" />
<glyph unicode="j" horiz-adv-x="811" d="M709 1567q0 -51 -34 -86t-83 -35t-84 35t-35 86q0 49 35 84t84 35t83 -35t34 -84zM707 1307h-154q-74 0 -80 -72q-3 -79 -3 -401.5t3 -888.5v-18q0 -233 -51 -312q-61 -66 -125 -66q-96 0 -213 142q-76 90 -84 127v-162q0 -80 104 -123q92 -39 185 -39q90 0 157 39 q262 152 263 700v144q-2 961 -2 930z" />
<glyph unicode="k" horiz-adv-x="1196" d="M0 1765v-1765h186q45 12 47 49q2 32 2.5 144.5t-2.5 306.5q0 39 21 39q14 0 35 -19q29 -25 506 -481q37 -35 92 -39h203l-705 672l702 635h-102q-20 0 -84 -58q-35 -27 -571 -575q-45 -49 -70 -49t-24 43q-1 92 -1.5 348t1.5 676q0 70 -58 73h-178z" />
<glyph unicode="l" horiz-adv-x="350" d="M242 1765v-1683q0 -76 -101 -82h-141v1690q0 72 68 75h174z" />
<glyph unicode="m" horiz-adv-x="1761" d="M0 1305h174q55 -8 62 -70v-608q205 442 288 557q102 121 191 121q63 0 125 -58q74 -68 92 -182q19 -112 19 -311q0 -77 -3 -166q39 104 99 233q121 258 235 381q90 98 174 98q88 0 148 -96q51 -84 51 -180v-1026h-160q-72 0 -78 86v903q0 47 -16 82q-22 40 -58 40 q-5 0 -10 -1q-47 -6 -110 -102q-172 -260 -238 -527q-31 -88 -33 -229v-182q2 -8 2 -15q0 -49 -88 -55h-161v1006q0 106 -60 108h-6q-66 0 -127 -82q-16 -20 -86 -145q-45 -82 -162 -340q-25 -57 -26 -115v-356q-14 -70 -64 -76h-174v1307z" />
<glyph unicode="n" horiz-adv-x="1191" d="M2 1307l150 2q81 -6 80 -63q0 -5 -1 -11v-504q0 -43 11 -43q10 0 28 37l95 221q57 129 118 207q119 154 260 154q139 0 230 -101q113 -162 112 -399v-805h-172q-63 4 -63 59v910q0 80 -38 132t-97 52q-47 0 -99 -33q-96 -63 -182 -198q-6 -10 -133 -242 q-68 -135 -68 -195q2 -169 2.5 -275t-2.5 -149q0 -16 -6 -30q-16 -31 -53 -31l-174 -2z" />
<glyph unicode="o" horiz-adv-x="1138" d="M539 1313q-242 0 -400 -232q-139 -205 -139 -458q0 -238 127 -424q141 -209 371 -209q244 0 401 231q139 205 139 459q0 238 -127 424q-143 209 -372 209zM801 653q-6 -254 -95 -429q-88 -173 -206 -173h-2q-119 4 -199 185q-74 167 -74 396v36q6 252 96 428 q88 174 205 174h2q119 -4 199 -185q74 -167 74 -396v-36z" />
<glyph unicode="p" horiz-adv-x="1157" d="M1040 897q-14 86 -62 179t-106 151q-76 78 -176 78q-115 0 -254 -218q-76 -117 -143 -270q-8 -20 -29 -61l-12 -29q-12 -23 -20 -22q-8 0 -9 36v480q1 7 1 13q0 65 -72 71h-158v-1821h180q51 39 51 117v635q0 -25 80 -117q94 -113 199 -119h18q104 0 205 66 q57 37 109 100q96 115 155 270q57 150 58 305q-1 77 -15 156zM819 588q-16 -176 -80 -318q-90 -199 -219 -198q-78 0 -145 71q-63 66 -113 185q-33 77 -33 131v12q2 33 15 74q129 311 215 465q20 39 69 106q35 37 84 37q55 0 95 -45q47 -55 86 -186q32 -108 32 -231 q-1 -50 -6 -103z" />
<glyph unicode="q" horiz-adv-x="1142" d="M802 1119q0 -50 -1 -83q0 -29 -8 -28q-8 0 -21 34q-14 45 -102 140q-113 121 -201 121q-104 0 -184 -63.5t-160 -213.5q-113 -211 -127 -577q0 -14 -1 -28q0 -160 69 -271q96 -152 215 -152q195 0 354 246q96 143 162 391v-1020q2 -16 8 -29q16 -29 57 -37h174v1754 q-86 -2 -162 -5q-74 -2 -73 -58q0 -24 0.5 -64.5t0.5 -56.5zM786 770q-10 -49 -71 -199l-58 -145q-35 -80 -71 -137q-109 -174 -221 -174q-20 0 -39 6q-90 37 -99 207q-5 96 -5 182q0 219 34 371q41 178 133 258q53 47 113 47q141 0 284 -242q18 -31 19 -72q-1 -30 -19 -102 z" />
<glyph unicode="r" horiz-adv-x="1003" d="M756 1307q-154 0 -275 -158q-84 -109 -178 -318q-47 -105 -57 -104q-7 0 -6 66v432q1 6 0 12q0 62 -80 68h-160v-5v-1302h203q41 16 45 61v484q0 53 53 153q41 82 135 242q78 115 178 215q49 47 103 47q61 0 114 -63q43 -51 66 -121v201q0 90 -141 90z" />
<glyph unicode="s" horiz-adv-x="962" d="M856 1010v166q1 6 1 12q0 43 -38 76q-35 31 -90 36q-102 13 -201 13q-107 0 -213 -15q-133 -20 -215 -86q-100 -80 -100 -217q0 -95 61 -178q45 -55 125 -108l105 -66q317 -226 317 -345q0 -100 -86 -171q-84 -70 -184 -70q-115 0 -178 27q-92 39 -199 162v-193 q10 -49 98 -51q25 0 74 -1t70 -3q260 0 393 22q94 18 145 64q92 84 105 201q2 21 2 41q0 85 -35 149q-43 80 -131 152q-33 27 -164 116l-102 72q-68 49 -92 70q-51 43 -78 84q-23 35 -23 75q0 57 40 111.5t98.5 78t132.5 23.5q70 0 139 -22q125 -39 223 -225z" />
<glyph unicode="t" horiz-adv-x="1095" d="M240 1651h155q80 0 86 -66v-305q428 -29 490 -45q16 -8 16 -14q0 -12 -51 -13h-397q-8 1 -15 1q-44 0 -47 -46v-766q0 -131 10 -180q23 -104 101 -135q43 -18 86 -19q47 0 127 29q16 6 98 53q76 45 80 45q10 0 10 -8q0 -12 -16 -26q-49 -51 -154 -101q-131 -66 -246 -65 q-113 0 -194 76q-136 126 -136 305q0 10 1 20v96v650q2 10 1 18q0 48 -50 51h-195q-2 92 51 99h191z" />
<glyph unicode="u" horiz-adv-x="1093" d="M4 1305h168q68 0 72 -76v-969q0 -111 102 -110q27 0 53 12q66 29 127 121q123 186 172 329q31 90 47 197q12 88 15 215q0 109 2 215q2 66 43 66h184v-1305h-182q-47 0 -51 80v567q0 -10 -37 -119q-115 -336 -363 -493q-57 -35 -125 -35q-72 0 -129 39t-75 111 q-8 35 -21 184q-6 66 -6 155q0 51 2 146q2 102 2 143v527z" />
<glyph unicode="v" horiz-adv-x="1339" d="M0 1305l379 -1305h170q5 -1 10 -1q42 0 86 73q25 43 588 1233h-180h-5q-40 0 -71 -101q-14 -53 -393 -1157l-330 1172q-23 80 -96 86h-158z" />
<glyph unicode="w" horiz-adv-x="2095" d="M0 1305h160h7q50 0 81 -84q16 -47 301 -1084l360 1053q23 63 80 67h94l12 2q31 0 48 -38l360 -1129l234 1133q14 74 75 80h164l-450 -1305h-150q-5 -2 -9 -2q-35 0 -79 111l-334 968l-372 -1001q-27 -72 -90 -76h-150z" />
<glyph unicode="x" horiz-adv-x="1101" d="M-2 1305h170q70 0 104 -54l277 -469l188 461q16 57 62 62h194q-14 -23 -45 -64l-301 -397q-61 -82 -61 -107q0 -16 8 -30l401 -709h-164q-5 -1 -9 -1q-32 0 -62 38q-16 20 -299 481l-211 -457q-27 -57 -90 -61h-162l410 541q12 16 12 39t-13.5 46.5z" />
<glyph unicode="y" horiz-adv-x="1232" d="M-10 1307h182q47 0 78 -66l428 -1005l65 194q39 115 56 201l104 594q14 49 15 51q14 31 49 31h161l-315 -897q-47 -135 -145 -373q-84 -199 -207 -328q-94 -98 -225 -137q-63 -18 -117 -18q-68 0 -103 30q-18 16 -18 70v153q35 -70 112 -113q60 -34 118 -35q16 0 32 3 q123 16 246 186q38 54 38 103q0 14 -3 29q-8 29 -551 1327z" />
<glyph unicode="z" horiz-adv-x="1105" d="M2 1053v196q-1 5 -1 10q0 41 79 46h919l-690 -1201q-14 -18 -14 -28q0 -23 41 -25q20 0 96 -2l250 -2q160 0 231 72q23 25 86 127v-195q-8 -47 -92 -51h-903l690 1200q14 18 15 33q0 25 -47 27h-93q-145 0 -233 -5q-168 -6 -252 -71q-62 -51 -82 -131z" />
<glyph unicode="{" horiz-adv-x="581" d="M438 1851q-115 -33 -208 -136t-117 -222q-16 -82 -2 -182q16 -102 61 -209q31 -72 31 -109t-23 -59q-27 -29 -121 -51q-59 -12 -59 -35q0 -10 16.5 -20.5t30.5 -10.5q35 0 72 -22q51 -33 51 -93q0 -14 -2 -30l-55 -246q-27 -143 -17 -250q12 -147 82 -227 q96 -111 254 -142q29 -4 29 7q0 12 -37 41q-209 94 -209 421q0 129 31 256q20 74 20 144q0 115 -59 145q-31 12 -33 23q0 6 26.5 28.5t28.5 26.5q35 51 35 135q0 86 -49 250q-12 41 -12 86q0 205 223 422q51 35 49 49q-2 18 -37 10z" />
<glyph unicode="|" horiz-adv-x="198" d="M0 1808v-2001h63q27 14 29 54v1994h-65q-25 0 -27 -47z" />
<glyph unicode="}" horiz-adv-x="581" d="M37 1849q115 -33 208 -135t117 -221q16 -82 3 -182q-14 -102 -60 -209q-31 -72 -31 -109t23 -59q27 -29 121 -51q59 -12 59 -35q0 -12 -16.5 -21.5t-30.5 -9.5q-35 0 -72 -22q-53 -33 -53 -93q0 -14 4 -30l53 -246q27 -143 19 -250q-14 -147 -84 -227q-96 -111 -254 -142 q-27 -4 -27 7q0 12 35 41q209 94 209 421q0 129 -31 254q-18 76 -18 146q0 115 57 145q31 12 33 23q0 6 -22 26q-29 25 -33 29q-35 51 -35 135q0 86 49 250q12 41 12 86q0 203 -223 422q-51 35 -49 47q2 20 37 10z" />
<glyph unicode="&#xaa;" horiz-adv-x="1105" d="M905 1182q-72 96 -188 121q-43 10 -99 12h-21q-146 0 -275 -78q-49 -29 -93 -59q-84 -61 -137 -123q-29 -35 -29 -45q0 -6 5 -11q3 -2 7 -1q21 0 81 42l129 95q82 59 137 77q43 14 90 15q55 0 113 -19q143 -45 143 -362q0 -39 -2 -85t-2 -48q0 -12 -10 -13q-18 0 -58 35 q-66 59 -166 94q-68 25 -139 25q-100 0 -178 -45q-213 -123 -213 -408q0 -123 45 -231q31 -74 86 -117q68 -53 172 -53q76 0 150 27q66 23 118 61q104 76 201 223v-239q6 -72 78 -72h88h61v621q0 227 -14 351t-80 210zM725 348q-124 -207 -275 -206q-14 0 -28 1 q-170 20 -189 256q-2 27 -2 52q0 102 33 186q16 45 63.5 89t92.5 50q13 2 25 2q65 0 137 -43q51 -29 109.5 -92t76.5 -117q6 -18 6 -39q0 -57 -49 -139z" />
<glyph unicode="&#xad;" horiz-adv-x="718" d="M0 758l586 -53q27 0 28 -23q0 -27 -147 -35l-414 -24q-47 -4 -49 47q0 22 -4 88z" />
<glyph unicode="&#xb2;" d="M0 2h995q90 0 97 51v185q-72 -127 -166 -170q-41 -14 -162 -19q-86 -4 -211 0q-156 2 -115 2h-254q-76 -6 -75 17q0 16 34 43l299 219q225 172 273 217q25 23 71 69q229 236 230 461q0 57 -17 115q-45 147 -162.5 240.5t-271.5 101.5q-272 12 -518 -260q-33 -35 -33 -51 q0 -8 9 -11q16 -4 83 52q225 180 388 180q154 0 235 -123q57 -84 57 -186q0 -178 -168 -396q-66 -84 -206 -245l-170 -170l-164 -144q-78 -70 -78 -125v-53z" />
<glyph unicode="&#xb3;" horiz-adv-x="1136" d="M250 -12zM467 1434q-80 10 -161 -20t-156 -83q-25 -23 -78 -61q-39 -27 -49 -27q-6 0 -13 4q-12 10 31 51l94 91q53 45 105.5 73.5t91.5 42.5q104 35 239 27q121 -8 224.5 -74.5t146.5 -175.5q27 -63 25 -131q-2 -111 -53.5 -189.5t-150.5 -132t-198 -57.5q137 4 262 -49 q100 -43 151.5 -120t51.5 -169q0 -96 -53 -194q-104 -193 -359 -238q-100 -18 -276 -10q-119 6 -225 45q-61 23 -97 49q-20 16 -20 29q0 6 4 10q4 2 55 -21q152 -70 287 -69q86 0 193 41q233 92 233 313q0 133 -82 221q-53 57 -172 99q-96 33 -96 55q0 10 20 18 q78 31 152 108t106 154q18 47 19 101q0 158 -117 239q-57 40 -135 50z" />
<glyph unicode="&#xb9;" horiz-adv-x="516" d="M410 0v1479q0 39 -31 39q-16 0 -35 -9q-63 -33 -324 -157q-20 -10 -20 -19q0 -10 25 -6l86 23q35 6 39 6q23 0 22 -31q-4 -131 0 -1253q0 -68 61 -72h177z" />
<glyph unicode="&#xba;" horiz-adv-x="1138" d="M539 1313q-242 0 -400 -232q-139 -205 -139 -458q0 -238 127 -424q141 -209 371 -209q244 0 401 231q139 205 139 459q0 238 -127 424q-143 209 -372 209zM801 653q-6 -254 -95 -429q-88 -173 -206 -173h-2q-119 4 -199 185q-74 167 -74 396v36q6 252 96 428 q88 174 205 174h2q119 -4 199 -185q74 -167 74 -396v-36z" />
<glyph unicode="&#xc2;" horiz-adv-x="1499" d="M672 2449l-340 -606q-8 -12 -23 -41q-6 -10 -2 -15q10 -12 31 17l63 90l21 29l252 354l334 -463q35 -47 34 -20q0 12 -6 32zM719 1661h-88q-18 0 -31 -4q-35 -8 -41 -29l-553 -1628h88q29 0 51 20q10 8 31 39l111 371h549q47 0 71 -20q16 -16 39 -67.5t68 -176.5 q51 -167 120 -167q6 0 13 1h237zM852 492h-547l209 847q12 45 31 45q20 0 41 -45l301 -792q8 -14 8 -27q0 -26 -43 -28z" />
<glyph unicode="&#xca;" d="M666 2441l-340 -606q-8 -12 -23 -41q-6 -10 -2 -15q10 -12 31 17l63 90l21 29l252 354l334 -463q35 -47 34 -20q0 12 -6 32zM1092 1335v176q0 111 -138 119q-93 3 -286 3t-486 -3q-170 0 -182 -166v-1466h1001q37 0 62 14q29 23 29 70v219q-8 -106 -158 -174 q-170 -66 -432 -66h-271v586q0 109 80 117h445q9 -2 17 -3q30 0 32 40q-10 14 -70 16h-499v631q0 109 96 117q203 0 203 1l-7 1q158 -4 297 -31q66 -16 117 -41q121 -60 150 -160z" />
<glyph unicode="&#xce;" horiz-adv-x="344" d="M158 2441l-340 -606q-8 -12 -23 -41q-6 -10 -2 -15q10 -12 31 17l63 90l21 29l252 354l334 -463q35 -47 34 -20q0 12 -6 32zM238 1630v-1540q-12 -86 -88 -92h-150v1552q0 74 84 80h154z" />
<glyph unicode="&#xd4;" horiz-adv-x="1417" d="M688 2441l-340 -606q-8 -12 -23 -41q-6 -10 -2 -15q10 -12 31 17l63 90l21 29l252 354l334 -463q35 -47 34 -20q0 12 -6 32zM690 1653q-254 0 -451.5 -221.5t-232.5 -548.5q-6 -55 -6 -113q0 -299 158 -528q176 -262 463 -262q254 0 451.5 221t232.5 549q6 55 6 112 q0 299 -158 529q-178 262 -463 262zM1102 788q-16 -319 -154 -539q-132 -212 -302 -212h-13q-178 10 -293 243q-100 203 -100 473q0 39 2 78q16 322 153 542q131 210 300 211q8 0 16 -1q178 -8 293 -241q100 -203 100 -475q0 -39 -2 -79z" />
<glyph unicode="&#xdb;" horiz-adv-x="1296" d="M576 2441l-340 -606q-8 -12 -23 -41q-6 -10 -2 -15q10 -12 31 17l63 90l21 29l252 354l334 -463q35 -47 34 -20q0 12 -6 32zM31 1628h198q33 -3 33 -60q0 -14 -2 -32q-6 -43 -12 -340q-6 -250 -8 -496q0 -17 -1 -33q0 -179 21 -280q43 -219 199 -295q80 -39 164 -39 q141 0 225 105q74 90 98 235q14 82 15 180q0 98 -23 312q-2 29 -37 635q-4 16 -4 30q0 74 84 78h145q23 -184 41 -416q25 -309 25 -469q0 -270 -55 -413q-43 -115 -103 -183q-78 -86 -139 -118q-70 -35 -268 -54q-15 -1 -31 -1q-87 0 -199 38q-295 100 -368 400 q-20 82 -29 370q-1 29 -1 61q0 65 3 144q12 193 18 330q5 155 11 311z" />
<glyph unicode="&#xe2;" horiz-adv-x="1105" d="M594 2103l-340 -606q-8 -12 -23 -41q-6 -10 -2 -15q10 -12 31 17l63 90l21 29l252 354l334 -463q35 -47 34 -20q0 12 -6 32zM905 1182q-72 96 -188 121q-43 10 -99 12h-21q-146 0 -275 -78q-49 -29 -93 -59q-84 -61 -137 -123q-29 -35 -29 -45q0 -6 5 -11q3 -2 7 -1 q21 0 81 42l129 95q82 59 137 77q43 14 90 15q55 0 113 -19q143 -45 143 -362q0 -39 -2 -85t-2 -48q0 -12 -10 -13q-18 0 -58 35q-66 59 -166 94q-68 25 -139 25q-100 0 -178 -45q-213 -123 -213 -408q0 -123 45 -231q31 -74 86 -117q68 -53 172 -53q76 0 150 27 q66 23 118 61q104 76 201 223v-239q6 -72 78 -72h88h61v621q0 227 -14 351t-80 210zM725 348q-124 -207 -275 -206q-14 0 -28 1q-170 20 -189 256q-2 27 -2 52q0 102 33 186q16 45 63.5 89t92.5 50q13 2 25 2q65 0 137 -43q51 -29 109.5 -92t76.5 -117q6 -18 6 -39 q0 -57 -49 -139z" />
<glyph unicode="&#xea;" horiz-adv-x="1101" d="M533 2101l-340 -606q-8 -12 -23 -41q-6 -10 -2 -15q10 -12 31 17l63 90l21 29l252 354l334 -463q35 -47 34 -20q0 12 -6 32zM805 100q-115 -66 -199 -65q-25 -2 -47 -2q-205 0 -287 182q-33 76 -39 180l3 183h673q82 8 88 94q0 111 -55 266q-41 117 -110.5 204 t-147.5 130q-70 39 -149 39q-195 0 -342 -187q-193 -244 -193 -553q0 -225 119 -387q102 -143 282 -180q88 -18 156 -18q172 0 326 100q92 61 92 94q0 14 -14 15q-14 0 -62 -33q-71 -50 -94 -62zM369 1194q68 51 143 51q129 0 193 -129q59 -121 69 -328q1 -24 1 -43 q0 -38 -3 -57q-2 -14 -8 -24q-16 -27 -49 -35h-482q4 283 7 303q23 180 129 262z" />
<glyph unicode="&#xee;" horiz-adv-x="346" d="M121 2472l-340 -606q-8 -12 -23 -41q-6 -10 -2 -15q10 -12 31 17l63 90l21 29l252 354l334 -463q35 -47 34 -20q0 12 -6 32zM242 1565q0 -49 -35 -83t-84 -34t-83 34t-34 83t34 83.5t83 34.5t84 -34.5t35 -83.5zM238 1307v-1248q1 -6 1 -11q0 -42 -71 -46h-168v1227 q-1 6 -1 12q0 62 83 66h156z" />
<glyph unicode="&#xf4;" horiz-adv-x="1138" d="M537 2101l-340 -606q-8 -12 -23 -41q-6 -10 -2 -15q10 -12 31 17l63 90l21 29l252 354l334 -463q35 -47 34 -20q0 12 -6 32zM539 1313q-242 0 -400 -232q-139 -205 -139 -458q0 -238 127 -424q141 -209 371 -209q244 0 401 231q139 205 139 459q0 238 -127 424 q-143 209 -372 209zM801 653q-6 -254 -95 -429q-88 -173 -206 -173h-2q-119 4 -199 185q-74 167 -74 396v36q6 252 96 428q88 174 205 174h2q119 -4 199 -185q74 -167 74 -396v-36z" />
<glyph unicode="&#xfb;" horiz-adv-x="1093" d="M494 2101l-340 -606q-8 -12 -23 -41q-6 -10 -2 -15q10 -12 31 17l63 90l21 29l252 354l334 -463q35 -47 34 -20q0 12 -6 32zM4 1305h168q68 0 72 -76v-969q0 -111 102 -110q27 0 53 12q66 29 127 121q123 186 172 329q31 90 47 197q12 88 15 215q0 109 2 215q2 66 43 66 h184v-1305h-182q-47 0 -51 80v567q0 -10 -37 -119q-115 -336 -363 -493q-57 -35 -125 -35q-72 0 -129 39t-75 111q-8 35 -21 184q-6 66 -6 155q0 51 2 146q2 102 2 143v527z" />
<glyph unicode="&#x152;" horiz-adv-x="2615" d="M2509 1335v176q0 111 -138 119q-93 3 -286 3t-486 -3q-170 0 -182 -166v-1466h1001q37 0 62 14q29 23 29 70v219q-8 -106 -158 -174q-170 -66 -432 -66h-271v586q0 109 80 117h445q9 -2 17 -3q30 0 32 40q-10 14 -70 16h-499v631q0 109 96 117q203 0 203 1l-7 1 q158 -4 297 -31q66 -16 117 -41q121 -60 150 -160zM690 1653q-254 0 -451.5 -221.5t-232.5 -548.5q-6 -55 -6 -113q0 -299 158 -528q176 -262 463 -262q254 0 451.5 221t232.5 549q6 55 6 112q0 299 -158 529q-178 262 -463 262zM1102 788q-16 -319 -154 -539 q-132 -212 -302 -212h-13q-178 10 -293 243q-100 203 -100 473q0 39 2 78q16 322 153 542q131 210 300 211q8 0 16 -1q178 -8 293 -241q100 -203 100 -475q0 -39 -2 -79z" />
<glyph unicode="&#x153;" horiz-adv-x="2240" d="M1944 100q-115 -66 -199 -65q-25 -2 -47 -2q-205 0 -287 182q-33 76 -39 180l3 183h673q82 8 88 94q0 111 -55 266q-41 117 -110.5 204t-147.5 130q-70 39 -149 39q-195 0 -342 -187q-193 -244 -193 -553q0 -225 119 -387q102 -143 282 -180q88 -18 156 -18 q172 0 326 100q92 61 92 94q0 14 -14 15q-14 0 -62 -33q-71 -50 -94 -62zM1508 1194q68 51 143 51q129 0 193 -129q59 -121 69 -328q1 -24 1 -43q0 -38 -3 -57q-2 -14 -8 -24q-16 -27 -49 -35h-482q4 283 7 303q23 180 129 262zM539 1313q-242 0 -400 -232 q-139 -205 -139 -458q0 -238 127 -424q141 -209 371 -209q244 0 401 231q139 205 139 459q0 238 -127 424q-143 209 -372 209zM801 653q-6 -254 -95 -429q-88 -173 -206 -173h-2q-119 4 -199 185q-74 167 -74 396v36q6 252 96 428q88 174 205 174h2q119 -4 199 -185 q74 -167 74 -396v-36z" />
<glyph unicode="&#x2c6;" horiz-adv-x="845" d="M369 1151l-340 -606q-8 -12 -23 -41q-6 -10 -2 -15q10 -12 31 17l63 90l21 29l252 354l334 -463q35 -47 34 -20q0 12 -6 32z" />
<glyph unicode="&#x2000;" horiz-adv-x="1234" />
<glyph unicode="&#x2001;" horiz-adv-x="2471" />
<glyph unicode="&#x2002;" horiz-adv-x="1234" />
<glyph unicode="&#x2003;" horiz-adv-x="2471" />
<glyph unicode="&#x2004;" horiz-adv-x="823" />
<glyph unicode="&#x2005;" horiz-adv-x="616" />
<glyph unicode="&#x2006;" horiz-adv-x="411" />
<glyph unicode="&#x2007;" horiz-adv-x="411" />
<glyph unicode="&#x2008;" horiz-adv-x="307" />
<glyph unicode="&#x2009;" horiz-adv-x="493" />
<glyph unicode="&#x200a;" horiz-adv-x="137" />
<glyph unicode="&#x2013;" horiz-adv-x="1024" d="M205 512v205h614v-205h-614z" />
<glyph unicode="&#x2014;" horiz-adv-x="2048" d="M205 512v205h1638v-205h-1638z" />
<glyph unicode="&#x2019;" horiz-adv-x="370" d="M266 1753q-2 -223 -217 -328q-49 -20 -49 -4q0 8 10 21q76 94 76 182q0 72 10 96q10 33 47 33h123z" />
<glyph unicode="&#x201c;" horiz-adv-x="503" d="M203 1755q-2 -225 -166 -330q-37 -20 -37 -4q0 6 6 21q59 96 60 182q0 131 43 131h94zM397 1755q-2 -225 -166 -330q-37 -20 -36 -4q0 6 8 21q57 96 57 182q0 131 43 131h94z" />
<glyph unicode="&#x201d;" horiz-adv-x="503" d="M203 1755q-2 -225 -166 -330q-37 -20 -37 -4q0 6 6 21q59 96 60 182q0 131 43 131h94zM397 1755q-2 -225 -166 -330q-37 -20 -36 -4q0 6 8 21q57 96 57 182q0 131 43 131h94z" />
<glyph unicode="&#x2026;" horiz-adv-x="1026" d="M920 117q0 -47 -34 -82t-83 -35t-84 35t-35 82q0 49 35 84t84 35t83 -35t34 -84zM578 117q0 -47 -34 -82t-83 -35t-84 35t-35 82q0 49 35 84t84 35t83 -35t34 -84zM236 117q0 -47 -34 -82t-83 -35t-84 35t-35 82q0 49 35 84t84 35t83 -35t34 -84z" />
<glyph unicode="&#x202f;" horiz-adv-x="493" />
<glyph unicode="&#x2039;" horiz-adv-x="522" d="M399 1151l-51 -47l-323 -297q-25 -23 -25 -43q0 -23 55 -70l359 -303q4 6 4 15q0 23 -25 59q-20 27 -262 303q274 301 268 383z" />
<glyph unicode="&#x203a;" horiz-adv-x="524" d="M18 1151l54 -49l323 -297q25 -23 25 -41q0 -25 -52 -69l-362 -304q-6 4 -6 12q0 23 27 60q20 27 262 305q-275 301 -271 383z" />
<glyph unicode="&#x205f;" horiz-adv-x="616" />
<glyph unicode="&#x2122;" horiz-adv-x="3235" d="M2960 1632q-16 -2 -31 -10q-35 -18 -53 -68l-543 -1450l-530 1471q-28 57 -88 57h-4h-132h-53l-53 -1632q16 0 29 6q31 10 34 39l179 1344l417 -1317q32 -73 62 -74q4 0 8 2h129q10 2 19 6q23 14 34 47l514 1295v-1260q2 -25 11 -41q18 -43 65 -47h158v1632h-172zM569 0 v1337q0 12 2 43t2 47q0 152 -103 152h-3q-143 0 -180 -6q-117 -14 -174 -72q-51 -45 -113 -112v202q0 39 51 43q72 2 378 2t847 -2q86 0 92 -63v-174q-82 113 -170 153q-61 25 -249 25h-29q-82 -2 -105 -55q-12 -31 -12 -131v-1307q0 -76 -68 -82h-166z" />
<glyph unicode="&#xe000;" horiz-adv-x="1305" d="M0 1305h1305v-1305h-1305v1305z" />
<glyph unicode="&#xfb01;" horiz-adv-x="1445" d="M1342 1565q0 -49 -35 -83t-84 -34t-83 34t-34 83t34 83.5t83 34.5t84 -34.5t35 -83.5zM1338 1307v-1248q1 -6 1 -11q0 -42 -71 -46h-168v1227q-1 6 -1 12q0 62 83 66h156zM993 1470v172q1 6 1 13q0 50 -74 86q-106 46 -213 46l-25 -1q-166 -10 -299 -170 q-74 -90 -113 -209q-16 -51 -22 -115q-2 -18 -6 -131q-6 -119 -4 -119h-189q-47 0 -49 -90h184q49 0 54 -73v-879h172q59 0 63 63v881h389q33 10 33 19q0 16 -66 26l-157 25q-92 12 -137 24q-61 18 -62 142q0 317 86 448q63 98 170 98q119 0 195 -127q32 -51 69 -129z" />
<glyph unicode="&#xfb02;" horiz-adv-x="1449" d="M1342 1765v-1683q0 -76 -101 -82h-141v1690q0 72 68 75h174zM993 1470v172q1 6 1 13q0 50 -74 86q-106 46 -213 46l-25 -1q-166 -10 -299 -170q-74 -90 -113 -209q-16 -51 -22 -115q-2 -18 -6 -131q-6 -119 -4 -119h-189q-47 0 -49 -90h184q49 0 54 -73v-879h172 q59 0 63 63v881h389q33 10 33 19q0 16 -66 26l-157 25q-92 12 -137 24q-61 18 -62 142q0 317 86 448q63 98 170 98q119 0 195 -127q32 -51 69 -129z" />
<glyph unicode="&#xfb03;" horiz-adv-x="2545" d="M2442 1565q0 -49 -35 -83t-84 -34t-83 34t-34 83t34 83.5t83 34.5t84 -34.5t35 -83.5zM2438 1307v-1248q1 -6 1 -11q0 -42 -71 -46h-168v1227q-1 6 -1 12q0 62 83 66h156zM2093 1470v172q1 6 1 13q0 50 -74 86q-106 46 -213 46l-25 -1q-166 -10 -299 -170 q-74 -90 -113 -209q-16 -51 -22 -115q-2 -18 -6 -131q-6 -119 -4 -119h-189q-47 0 -49 -90h184q49 0 54 -73v-879h172q59 0 63 63v881h389q33 10 33 19q0 16 -66 26l-157 25q-92 12 -137 24q-61 18 -62 142q0 317 86 448q63 98 170 98q119 0 195 -127q32 -51 69 -129z M993 1470v172q1 6 1 13q0 50 -74 86q-106 46 -213 46l-25 -1q-166 -10 -299 -170q-74 -90 -113 -209q-16 -51 -22 -115q-2 -18 -6 -131q-6 -119 -4 -119h-189q-47 0 -49 -90h184q49 0 54 -73v-879h172q59 0 63 63v881h389q33 10 33 19q0 16 -66 26l-157 25q-92 12 -137 24 q-61 18 -62 142q0 317 86 448q63 98 170 98q119 0 195 -127q32 -51 69 -129z" />
<glyph unicode="&#xfb04;" horiz-adv-x="2549" d="M2442 1765v-1683q0 -76 -101 -82h-141v1690q0 72 68 75h174zM2093 1470v172q1 6 1 13q0 50 -74 86q-106 46 -213 46l-25 -1q-166 -10 -299 -170q-74 -90 -113 -209q-16 -51 -22 -115q-2 -18 -6 -131q-6 -119 -4 -119h-189q-47 0 -49 -90h184q49 0 54 -73v-879h172 q59 0 63 63v881h389q33 10 33 19q0 16 -66 26l-157 25q-92 12 -137 24q-61 18 -62 142q0 317 86 448q63 98 170 98q119 0 195 -127q32 -51 69 -129zM993 1470v172q1 6 1 13q0 50 -74 86q-106 46 -213 46l-25 -1q-166 -10 -299 -170q-74 -90 -113 -209q-16 -51 -22 -115 q-2 -18 -6 -131q-6 -119 -4 -119h-189q-47 0 -49 -90h184q49 0 54 -73v-879h172q59 0 63 63v881h389q33 10 33 19q0 16 -66 26l-157 25q-92 12 -137 24q-61 18 -62 142q0 317 86 448q63 98 170 98q119 0 195 -127q32 -51 69 -129z" />
</font>
</defs>
</svg>
